<svg viewBox="-150 -150 300 300" xmlns="http://www.w3.org/2000/svg">
<circle cx="0" cy="0" fill="#E8FB62" r="100" stroke="none" stroke-linejoin="round" stroke-width="1" transform="scale(1,-1)"/>
<path d="M97.67659,-21.430916 C109.39778,-24.002625,125,-13,125,0 C125,13,109.39778,24.002625,97.67659,21.430916 a100,100,0,0,0,0,-42.86183" fill="pink" stroke="none" stroke-linejoin="round" stroke-width="1" transform="scale(1,-1)"/>
<path d="M98.44266,17.579628 C110.255775,19.689184,120.45982,35.824997,115.48494,47.83543 C110.510056,59.845863,91.884964,64.04025,82.040146,57.178795 a100,100,0,0,0,16.402512,-39.599167" fill="pink" stroke="none" stroke-linejoin="round" stroke-width="1" transform="scale(1,-1)"/>
<path d="M84.221725,53.913834 C94.32833,60.38349,97.580734,79.19596,88.38835,88.38835 C79.19596,97.580734,60.38349,94.32833,53.913834,84.221725 a100,100,0,0,0,30.307892,-30.307892" fill="pink" stroke="none" stroke-linejoin="round" stroke-width="1" transform="scale(1,-1)"/>
<path d="M57.178795,82.040146 C64.04025,91.884964,59.845863,110.510056,47.83543,115.48494 C35.824997,120.45982,19.689184,110.255775,17.579628,98.44266 a100,100,0,0,0,39.599167,-16.402512" fill="pink" stroke="none" stroke-linejoin="round" stroke-width="1" transform="scale(1,-1)"/>
<path d="M21.430916,97.67659 C24.002625,109.39778,13,125,0.000000000000007654042,125 C-13,125,-24.002625,109.39778,-21.430916,97.67659 a100,100,0,0,0,42.86183,0.000000000000014210855" fill="pink" stroke="none" stroke-linejoin="round" stroke-width="1" transform="scale(1,-1)"/>
<path d="M-17.579628,98.44266 C-19.689184,110.255775,-35.824997,120.45982,-47.83543,115.48494 C-59.845863,110.510056,-64.04025,91.884964,-57.178795,82.040146 a100,100,0,0,0,39.599167,16.402512" fill="pink" stroke="none" stroke-linejoin="round" stroke-width="1" transform="scale(1,-1)"/>
<path d="M-53.913834,84.221725 C-60.38349,94.32833,-79.19596,97.580734,-88.38835,88.38835 C-97.580734,79.19596,-94.32833,60.38349,-84.221725,53.913834 a100,100,0,0,0,30.307892,30.307892" fill="pink" stroke="none" stroke-linejoin="round" stroke-width="1" transform="scale(1,-1)"/>
<path d="M-82.040146,57.178795 C-91.884964,64.04025,-110.510056,59.845863,-115.48494,47.83543 C-120.45982,35.824997,-110.255775,19.689184,-98.44266,17.579628 a100,100,0,0,0,16.402512,39.599167" fill="pink" stroke="none" stroke-linejoin="round" stroke-width="1" transform="scale(1,-1)"/>
<path d="M-97.67659,21.430916 C-109.39778,24.002625,-125,13,-125,0.000000000000015308084 C-125,-13,-109.39778,-24.002625,-97.67659,-21.430916 a100,100,0,0,0,0.000000000000014210855,42.86183" fill="pink" stroke="none" stroke-linejoin="round" stroke-width="1" transform="scale(1,-1)"/>
<path d="M-98.44266,-17.579628 C-110.255775,-19.689184,-120.45982,-35.824997,-115.48494,-47.83543 C-110.510056,-59.845863,-91.884964,-64.04025,-82.040146,-57.178795 a100,100,0,0,0,-16.402512,39.599167" fill="pink" stroke="none" stroke-linejoin="round" stroke-width="1" transform="scale(1,-1)"/>
<path d="M-84.221725,-53.913834 C-94.32833,-60.38349,-97.580734,-79.19596,-88.38835,-88.38835 C-79.19596,-97.580734,-60.38349,-94.32833,-53.913834,-84.221725 a100,100,0,0,0,-30.307892,30.307892" fill="pink" stroke="none" stroke-linejoin="round" stroke-width="1" transform="scale(1,-1)"/>
<path d="M-57.178795,-82.040146 C-64.04025,-91.884964,-59.845863,-110.510056,-47.83543,-115.48494 C-35.824997,-120.45982,-19.689184,-110.255775,-17.579628,-98.44266 a100,100,0,0,0,-39.599167,16.402512" fill="pink" stroke="none" stroke-linejoin="round" stroke-width="1" transform="scale(1,-1)"/>
<path d="M-21.430916,-97.67659 C-24.002625,-109.39778,-13,-125,-0.000000000000022962128,-125 C13,-125,24.002625,-109.39778,21.430916,-97.67659 a100,100,0,0,0,-42.86183,0" fill="pink" stroke="none" stroke-linejoin="round" stroke-width="1" transform="scale(1,-1)"/>
<path d="M17.579628,-98.44266 C19.689184,-110.255775,35.824997,-120.45982,47.83543,-115.48494 C59.845863,-110.510056,64.04025,-91.884964,57.178795,-82.040146 a100,100,0,0,0,-39.599167,-16.402512" fill="pink" stroke="none" stroke-linejoin="round" stroke-width="1" transform="scale(1,-1)"/>
<path d="M53.913834,-84.221725 C60.38349,-94.32833,79.19596,-97.580734,88.38835,-88.38835 C97.580734,-79.19596,94.32833,-60.38349,84.221725,-53.913834 a100,100,0,0,0,-30.307892,-30.307892" fill="pink" stroke="none" stroke-linejoin="round" stroke-width="1" transform="scale(1,-1)"/>
<path d="M82.040146,-57.178795 C91.884964,-64.04025,110.510056,-59.845863,115.48494,-47.83543 C120.45982,-35.824997,110.255775,-19.689184,98.44266,-17.579628 a100,100,0,0,0,-16.402512,-39.599167" fill="pink" stroke="none" stroke-linejoin="round" stroke-width="1" transform="scale(1,-1)"/>
<circle cx="0" cy="0" fill="#E8FB62" r="100" stroke="none" stroke-linejoin="round" stroke-width="1" transform="scale(1,-1)"/>
<path d="M92.08455,-38.992767 C103.1347,-43.6719,102,0,115,0 C102,0,103.1347,43.6719,92.08455,38.992767 a100,100,0,0,0,0,-77.985535" fill="#900007" stroke="none" stroke-linejoin="round" stroke-width="1" transform="scale(1,-1)"/>
<path d="M92.68566,37.541557 C103.80794,42.046543,72.12489,72.12489,81.31728,81.31728 C72.12489,72.12489,42.046543,103.80794,37.541557,92.68566 a100,100,0,0,0,55.144104,-55.144104" fill="#900007" stroke="none" stroke-linejoin="round" stroke-width="1" transform="scale(1,-1)"/>
<path d="M38.992767,92.08455 C43.6719,103.1347,0.0000000000000010314677,102,0.000000000000007041719,115 C0.0000000000000010314677,102,-43.6719,103.1347,-38.992767,92.08455 a100,100,0,0,0,77.985535,0" fill="#900007" stroke="none" stroke-linejoin="round" stroke-width="1" transform="scale(1,-1)"/>
<path d="M-37.541557,92.68566 C-42.046543,103.80794,-72.12489,72.12489,-81.31728,81.31728 C-72.12489,72.12489,-103.80794,42.046543,-92.68566,37.541557 a100,100,0,0,0,55.144104,55.144104" fill="#900007" stroke="none" stroke-linejoin="round" stroke-width="1" transform="scale(1,-1)"/>
<path d="M-92.08455,38.992767 C-103.1347,43.6719,-102,0.000000000000010124793,-115,0.000000000000014083438 C-102,0.000000000000010124793,-103.1347,-43.6719,-92.08455,-38.992767 a100,100,0,0,0,0,77.985535" fill="#900007" stroke="none" stroke-linejoin="round" stroke-width="1" transform="scale(1,-1)"/>
<path d="M-92.68566,-37.541557 C-103.80794,-42.046543,-72.12489,-72.12489,-81.31728,-81.31728 C-72.12489,-72.12489,-42.046543,-103.80794,-37.541557,-92.68566 a100,100,0,0,0,-55.144104,55.144104" fill="#900007" stroke="none" stroke-linejoin="round" stroke-width="1" transform="scale(1,-1)"/>
<path d="M-38.992767,-92.08455 C-43.6719,-103.1347,-0.000000000000017202655,-102,-0.000000000000021125158,-115 C-0.000000000000017202655,-102,43.6719,-103.1347,38.992767,-92.08455 a100,100,0,0,0,-77.985535,0" fill="#900007" stroke="none" stroke-linejoin="round" stroke-width="1" transform="scale(1,-1)"/>
<path d="M37.541557,-92.68566 C42.046543,-103.80794,72.12489,-72.12489,81.31728,-81.31728 C72.12489,-72.12489,103.80794,-42.046543,92.68566,-37.541557 a100,100,0,0,0,-55.144104,-55.144104" fill="#900007" stroke="none" stroke-linejoin="round" stroke-width="1" transform="scale(1,-1)"/>
<path d="M-18.51329,-75 L-50.646706,-75 L-37.91089,-48.805847 L-68.23274,-48.805847 L-55.53987,-25 L-96.824585,-25 L-75.71812,2.248327 L-95.652,29.166666 L-54.867264,29.166666 L-65.12763,48.646194 L-39.778484,48.646194 L-60.33384,79.166664 L-16.13743,79.166664 L0,100 L16.13743,79.166664 L60.33384,79.166664 L39.778484,48.646194 L65.12763,48.646194 L54.867264,29.166666 L95.652,29.166666 L75.71812,2.248327 L96.824585,-25 L55.53987,-25 L68.23274,-48.805847 L37.91089,-48.805847 L50.646706,-75 L18.51329,-75 L0,-100 z" fill="#7b7064" stroke="none" stroke-linejoin="round" stroke-width="1" transform="scale(1,-1)"/>
<path d="M-18.51329,-75 L-75.71812,2.248327 L-16.13743,79.166664 L16.13743,79.166664 L75.71812,2.248327 L18.51329,-75 z" fill="#E8FB62" stroke="none" stroke-linejoin="round" stroke-width="1" transform="scale(1,-1)"/>
<path d="M-13.797134,-48.805847 L-37.91089,-48.805847 L-26.336287,-25 L-55.53987,-25 L-40.849125,2.5529306 L-54.867264,29.166666 L-26.65914,29.166666 L-39.778484,48.646194 L-16.27299,48.646194 L0,79.166664 L16.27299,48.646194 L39.778484,48.646194 L26.65914,29.166666 L54.867264,29.166666 L40.849125,2.5529306 L55.53987,-25 L26.336287,-25 L37.91089,-48.805847 L13.797134,-48.805847 L0,-75 z" fill="#fd5e36" stroke="none" stroke-linejoin="round" stroke-width="1" transform="scale(1,-1)"/>
<path d="M-13.797134,-48.805847 L-40.849125,2.5529306 L-16.27299,48.646194 L16.27299,48.646194 L40.849125,2.5529306 L13.797134,-48.805847 z" fill="#E8FB62" stroke="none" stroke-linejoin="round" stroke-width="1" transform="scale(1,-1)"/>
<path d="M-11.934648,-25 L-26.336287,-25 L-19.245749,-10.416667 L-34.017704,-10.416667 L-26.120092,3.295475 L-33.06601,17.150389 L-18.14025,17.150389 L-26.65914,29.166666 L-11.219382,29.166666 L0,48.646194 L11.219382,29.166666 L26.65914,29.166666 L18.14025,17.150389 L33.06601,17.150389 L26.120092,3.295475 L34.017704,-10.416667 L19.245749,-10.416667 L26.336287,-25 L11.934648,-25 L0,-48.805847 z" fill="#7c96f7" stroke="none" stroke-linejoin="round" stroke-width="1" transform="scale(1,-1)"/>
<path d="M-11.934648,-25 L-26.120092,3.295475 L-11.219382,29.166666 L11.219382,29.166666 L26.120092,3.295475 L11.934648,-25 z" fill="#E8FB62" stroke="none" stroke-linejoin="round" stroke-width="1" transform="scale(1,-1)"/>
<path d="M-11.440492,-10.416667 L-19.245749,-10.416667 L-16.259218,-4.274177 L-24.459446,6.178753 L-11.176916,6.178753 L-18.14025,17.150389 L-5.8424153,17.150389 L0,29.166666 L5.8424153,17.150389 L18.14025,17.150389 L11.176916,6.178753 L24.459446,6.178753 L16.259218,-4.274177 L19.245749,-10.416667 L11.440492,-10.416667 L0,-25 z" fill="#fd9d97" stroke="none" stroke-linejoin="round" stroke-width="1" transform="scale(1,-1)"/>
<path d="M-11.440492,-10.416667 L-16.259218,-4.274177 L-5.8424153,17.150389 L5.8424153,17.150389 L16.259218,-4.274177 L11.440492,-10.416667 z" fill="#E8FB62" stroke="none" stroke-linejoin="round" stroke-width="1" transform="scale(1,-1)"/>
<path d="M-11.176916,6.178753 L11.176916,6.178753 L0,-10.416667 z" fill="white" stroke="none" stroke-linejoin="round" stroke-width="1" transform="scale(1,-1)"/>
<circle cx="0" cy="0" fill="#f33625" r="1" stroke="none" stroke-linejoin="round" stroke-width="1" transform="scale(1,-1)"/>
</svg>